<svg xmlns="http://www.w3.org/2000/svg" viewBox="0 0 1200 630" fill="none">
  <defs>
    <linearGradient id="og-wq-bg" x1="0" y1="0" x2="1" y2="1">
      <stop offset="0%" stop-color="#1e1033"/>
      <stop offset="50%" stop-color="#2e1065"/>
      <stop offset="100%" stop-color="#7c3aed"/>
    </linearGradient>
    <linearGradient id="og-wq-accent" x1="0" y1="1" x2="0" y2="0">
      <stop offset="0%" stop-color="#7c3aed"/>
      <stop offset="100%" stop-color="#8b5cf6"/>
    </linearGradient>
  </defs>
  <!-- Background -->
  <rect width="1200" height="630" fill="url(#og-wq-bg)"/>
  <!-- Abstract circles background -->
  <circle cx="1050" cy="100" r="200" fill="#7c3aed" opacity="0.1"/>
  <circle cx="1100" cy="500" r="150" fill="#8b5cf6" opacity="0.08"/>
  <circle cx="150" cy="550" r="120" fill="#a78bfa" opacity="0.06"/>
  <!-- Logo -->
  <g transform="translate(80, 140) scale(1.35)">
    <circle cx="112" cy="118" r="72" fill="url(#og-wq-accent)"/>
    <circle cx="112" cy="118" r="42" fill="#1e1033"/>
    <path d="M148 152 L200 50 L185 95 L210 82 L165 170 Z" fill="#a78bfa"/>
    <line x1="140" y1="175" x2="120" y2="210" stroke="#7c3aed" stroke-width="4" stroke-linecap="round" opacity="0.6"/>
    <line x1="155" y1="178" x2="145" y2="205" stroke="#8b5cf6" stroke-width="3" stroke-linecap="round" opacity="0.4"/>
    <line x1="168" y1="175" x2="165" y2="198" stroke="#a78bfa" stroke-width="2.5" stroke-linecap="round" opacity="0.3"/>
    <circle cx="82" cy="85" r="6" fill="#a78bfa" opacity="0.5"/>
    <circle cx="72" cy="115" r="6" fill="#a78bfa" opacity="0.6"/>
    <circle cx="80" cy="148" r="6" fill="#a78bfa" opacity="0.7"/>
    <circle cx="108" cy="162" r="6" fill="#a78bfa" opacity="0.8"/>
  </g>
  <!-- Text -->
  <text x="460" y="270" font-family="system-ui, -apple-system, 'Segoe UI', sans-serif" font-size="72" font-weight="700" fill="#ffffff" letter-spacing="-2">WaitlistQ</text>
  <text x="460" y="330" font-family="system-ui, -apple-system, 'Segoe UI', sans-serif" font-size="24" fill="#c4b5fd" letter-spacing="1">VIRAL WAITLISTS THAT FUEL GROWTH</text>
  <!-- Stats/social proof mock -->
  <g transform="translate(460, 370)">
    <rect x="0" y="0" width="140" height="36" rx="18" fill="#ffffff" opacity="0.12"/>
    <text x="70" y="24" font-family="system-ui, sans-serif" font-size="14" fill="#ffffff" text-anchor="middle">Viral Loops</text>
    <rect x="155" y="0" width="140" height="36" rx="18" fill="#ffffff" opacity="0.12"/>
    <text x="225" y="24" font-family="system-ui, sans-serif" font-size="14" fill="#ffffff" text-anchor="middle">Analytics</text>
    <rect x="310" y="0" width="160" height="36" rx="18" fill="#ffffff" opacity="0.12"/>
    <text x="390" y="24" font-family="system-ui, sans-serif" font-size="14" fill="#ffffff" text-anchor="middle">Drop-in Widget</text>
  </g>
  <!-- URL -->
  <text x="460" y="520" font-family="monospace" font-size="18" fill="#a78bfa" opacity="0.7">waitlistq.com</text>
</svg>
